<mxfile host="app.diagrams.net" modified="2023-12-25T16:00:21.691Z" agent="Mozilla/5.0 (Windows NT 10.0; Win64; x64) AppleWebKit/537.36 (KHTML, like Gecko) Chrome/120.0.0.0 Safari/537.36" etag="3sPKYUSxWJr9PQN47Oeu" version="22.1.11" type="google">
  <diagram name="第 1 页" id="AexN1lBEWDw0cF3wNzuN">
    <mxGraphModel grid="1" page="1" gridSize="10" guides="1" tooltips="1" connect="1" arrows="1" fold="1" pageScale="1" pageWidth="827" pageHeight="1169" math="0" shadow="0">
      <root>
        <mxCell id="0" />
        <mxCell id="1" parent="0" />
        <mxCell id="kD2vEZLajEgz-Yj9L5ba-1" value="進入停車場" style="ellipse;whiteSpace=wrap;html=1;fillColor=#d5e8d4;strokeColor=#82b366;" vertex="1" parent="1">
          <mxGeometry x="240" y="140" width="80" height="50" as="geometry" />
        </mxCell>
        <mxCell id="kD2vEZLajEgz-Yj9L5ba-2" value="離開停車場" style="ellipse;whiteSpace=wrap;html=1;fillColor=#d5e8d4;strokeColor=#82b366;" vertex="1" parent="1">
          <mxGeometry x="240" y="260" width="80" height="50" as="geometry" />
        </mxCell>
        <mxCell id="kD2vEZLajEgz-Yj9L5ba-3" value="支付費用" style="ellipse;whiteSpace=wrap;html=1;fillColor=#d5e8d4;strokeColor=#82b366;" vertex="1" parent="1">
          <mxGeometry x="380" y="290" width="80" height="50" as="geometry" />
        </mxCell>
        <mxCell id="kD2vEZLajEgz-Yj9L5ba-4" value="刪除車輛訊息" style="ellipse;whiteSpace=wrap;html=1;fillColor=#d5e8d4;strokeColor=#82b366;" vertex="1" parent="1">
          <mxGeometry x="380" y="180" width="80" height="50" as="geometry" />
        </mxCell>
        <mxCell id="kD2vEZLajEgz-Yj9L5ba-5" value="添加車輛訊息" style="ellipse;whiteSpace=wrap;html=1;fillColor=#d5e8d4;strokeColor=#82b366;" vertex="1" parent="1">
          <mxGeometry x="380" y="90" width="80" height="50" as="geometry" />
        </mxCell>
        <mxCell id="kD2vEZLajEgz-Yj9L5ba-6" value="查詢車輛訊息" style="ellipse;whiteSpace=wrap;html=1;fillColor=#d5e8d4;strokeColor=#82b366;" vertex="1" parent="1">
          <mxGeometry x="530" y="290" width="80" height="50" as="geometry" />
        </mxCell>
        <mxCell id="kD2vEZLajEgz-Yj9L5ba-7" value="差看車輛訊息" style="ellipse;whiteSpace=wrap;html=1;fillColor=#d5e8d4;strokeColor=#82b366;" vertex="1" parent="1">
          <mxGeometry x="530" y="190" width="80" height="50" as="geometry" />
        </mxCell>
        <mxCell id="kD2vEZLajEgz-Yj9L5ba-8" value="登入系統" style="ellipse;whiteSpace=wrap;html=1;fillColor=#d5e8d4;strokeColor=#82b366;" vertex="1" parent="1">
          <mxGeometry x="530" y="90" width="80" height="50" as="geometry" />
        </mxCell>
        <mxCell id="kD2vEZLajEgz-Yj9L5ba-9" value="車主" style="shape=umlActor;verticalLabelPosition=bottom;verticalAlign=top;html=1;outlineConnect=0;" vertex="1" parent="1">
          <mxGeometry x="110" y="200" width="30" height="60" as="geometry" />
        </mxCell>
        <mxCell id="kD2vEZLajEgz-Yj9L5ba-10" value="管理員" style="shape=umlActor;verticalLabelPosition=bottom;verticalAlign=top;html=1;outlineConnect=0;" vertex="1" parent="1">
          <mxGeometry x="700" y="180" width="30" height="60" as="geometry" />
        </mxCell>
        <mxCell id="kD2vEZLajEgz-Yj9L5ba-11" value="" style="endArrow=none;html=1;rounded=0;exitX=1;exitY=0.5;exitDx=0;exitDy=0;" edge="1" parent="1" source="kD2vEZLajEgz-Yj9L5ba-8" target="kD2vEZLajEgz-Yj9L5ba-10">
          <mxGeometry width="50" height="50" relative="1" as="geometry">
            <mxPoint x="640" y="320" as="sourcePoint" />
            <mxPoint x="690" y="270" as="targetPoint" />
          </mxGeometry>
        </mxCell>
        <mxCell id="kD2vEZLajEgz-Yj9L5ba-12" value="" style="endArrow=none;html=1;rounded=0;exitX=1;exitY=0.5;exitDx=0;exitDy=0;" edge="1" parent="1" source="kD2vEZLajEgz-Yj9L5ba-7" target="kD2vEZLajEgz-Yj9L5ba-10">
          <mxGeometry width="50" height="50" relative="1" as="geometry">
            <mxPoint x="620" y="125" as="sourcePoint" />
            <mxPoint x="710" y="206" as="targetPoint" />
          </mxGeometry>
        </mxCell>
        <mxCell id="kD2vEZLajEgz-Yj9L5ba-13" value="" style="endArrow=none;html=1;rounded=0;exitX=0.75;exitY=0.1;exitDx=0;exitDy=0;entryX=0;entryY=0.5;entryDx=0;entryDy=0;exitPerimeter=0;" edge="1" parent="1" source="kD2vEZLajEgz-Yj9L5ba-9" target="kD2vEZLajEgz-Yj9L5ba-1">
          <mxGeometry width="50" height="50" relative="1" as="geometry">
            <mxPoint x="150" y="90" as="sourcePoint" />
            <mxPoint x="240" y="171" as="targetPoint" />
          </mxGeometry>
        </mxCell>
        <mxCell id="kD2vEZLajEgz-Yj9L5ba-14" value="" style="endArrow=none;html=1;rounded=0;entryX=0;entryY=0.5;entryDx=0;entryDy=0;" edge="1" parent="1" source="kD2vEZLajEgz-Yj9L5ba-9" target="kD2vEZLajEgz-Yj9L5ba-2">
          <mxGeometry width="50" height="50" relative="1" as="geometry">
            <mxPoint x="143" y="216" as="sourcePoint" />
            <mxPoint x="250" y="175" as="targetPoint" />
          </mxGeometry>
        </mxCell>
        <mxCell id="kD2vEZLajEgz-Yj9L5ba-16" value="" style="endArrow=block;dashed=1;endFill=0;endSize=12;html=1;rounded=0;exitX=1;exitY=0.5;exitDx=0;exitDy=0;entryX=0;entryY=0.5;entryDx=0;entryDy=0;" edge="1" parent="1" source="kD2vEZLajEgz-Yj9L5ba-2" target="kD2vEZLajEgz-Yj9L5ba-3">
          <mxGeometry width="160" relative="1" as="geometry">
            <mxPoint x="250" y="300" as="sourcePoint" />
            <mxPoint x="410" y="300" as="targetPoint" />
          </mxGeometry>
        </mxCell>
        <mxCell id="kD2vEZLajEgz-Yj9L5ba-17" value="" style="endArrow=block;dashed=1;endFill=0;endSize=12;html=1;rounded=0;exitX=1;exitY=0.5;exitDx=0;exitDy=0;entryX=0;entryY=0.5;entryDx=0;entryDy=0;" edge="1" parent="1" source="kD2vEZLajEgz-Yj9L5ba-1" target="kD2vEZLajEgz-Yj9L5ba-5">
          <mxGeometry width="160" relative="1" as="geometry">
            <mxPoint x="330" y="295" as="sourcePoint" />
            <mxPoint x="390" y="325" as="targetPoint" />
          </mxGeometry>
        </mxCell>
        <mxCell id="kD2vEZLajEgz-Yj9L5ba-18" value="" style="endArrow=block;dashed=1;endFill=0;endSize=12;html=1;rounded=0;exitX=1;exitY=0.5;exitDx=0;exitDy=0;entryX=0;entryY=0.5;entryDx=0;entryDy=0;" edge="1" parent="1" source="kD2vEZLajEgz-Yj9L5ba-4" target="kD2vEZLajEgz-Yj9L5ba-7">
          <mxGeometry width="160" relative="1" as="geometry">
            <mxPoint x="340" y="305" as="sourcePoint" />
            <mxPoint x="400" y="335" as="targetPoint" />
          </mxGeometry>
        </mxCell>
        <mxCell id="kD2vEZLajEgz-Yj9L5ba-19" value="" style="endArrow=block;dashed=1;endFill=0;endSize=12;html=1;rounded=0;exitX=0.5;exitY=0;exitDx=0;exitDy=0;entryX=0.5;entryY=1;entryDx=0;entryDy=0;" edge="1" parent="1" source="kD2vEZLajEgz-Yj9L5ba-6" target="kD2vEZLajEgz-Yj9L5ba-7">
          <mxGeometry width="160" relative="1" as="geometry">
            <mxPoint x="350" y="315" as="sourcePoint" />
            <mxPoint x="410" y="345" as="targetPoint" />
          </mxGeometry>
        </mxCell>
        <mxCell id="kD2vEZLajEgz-Yj9L5ba-20" value="" style="endArrow=block;dashed=1;endFill=0;endSize=12;html=1;rounded=0;exitX=1;exitY=0.5;exitDx=0;exitDy=0;entryX=0;entryY=0;entryDx=0;entryDy=0;" edge="1" parent="1" source="kD2vEZLajEgz-Yj9L5ba-5" target="kD2vEZLajEgz-Yj9L5ba-7">
          <mxGeometry width="160" relative="1" as="geometry">
            <mxPoint x="360" y="325" as="sourcePoint" />
            <mxPoint x="420" y="355" as="targetPoint" />
          </mxGeometry>
        </mxCell>
        <mxCell id="kD2vEZLajEgz-Yj9L5ba-21" value="include" style="text;html=1;align=center;verticalAlign=middle;resizable=0;points=[];autosize=1;strokeColor=none;fillColor=none;" vertex="1" parent="1">
          <mxGeometry x="330" y="280" width="60" height="30" as="geometry" />
        </mxCell>
        <mxCell id="kD2vEZLajEgz-Yj9L5ba-22" value="include" style="text;html=1;align=center;verticalAlign=middle;resizable=0;points=[];autosize=1;strokeColor=none;fillColor=none;" vertex="1" parent="1">
          <mxGeometry x="330" y="140" width="60" height="30" as="geometry" />
        </mxCell>
        <mxCell id="kD2vEZLajEgz-Yj9L5ba-23" value="extend" style="text;html=1;align=center;verticalAlign=middle;resizable=0;points=[];autosize=1;strokeColor=none;fillColor=none;" vertex="1" parent="1">
          <mxGeometry x="520" y="260" width="60" height="30" as="geometry" />
        </mxCell>
        <mxCell id="kD2vEZLajEgz-Yj9L5ba-24" value="extend" style="text;html=1;align=center;verticalAlign=middle;resizable=0;points=[];autosize=1;strokeColor=none;fillColor=none;" vertex="1" parent="1">
          <mxGeometry x="460" y="200" width="60" height="30" as="geometry" />
        </mxCell>
        <mxCell id="kD2vEZLajEgz-Yj9L5ba-25" value="extend" style="text;html=1;align=center;verticalAlign=middle;resizable=0;points=[];autosize=1;strokeColor=none;fillColor=none;" vertex="1" parent="1">
          <mxGeometry x="470" y="120" width="60" height="30" as="geometry" />
        </mxCell>
      </root>
    </mxGraphModel>
  </diagram>
</mxfile>
